<?xml version="1.0" encoding="UTF-8" standalone="no"?>
<!-- Created with Inkscape (http://www.inkscape.org/) -->

<svg
   version="1.1"
   id="svg2"
   width="4000"
   height="2640"
   viewBox="0 0 4000 2640"
   sodipodi:docname="vecteezy_black-eye-icon_21739551.eps"
   xmlns:inkscape="http://www.inkscape.org/namespaces/inkscape"
   xmlns:sodipodi="http://sodipodi.sourceforge.net/DTD/sodipodi-0.dtd"
   xmlns="http://www.w3.org/2000/svg"
   xmlns:svg="http://www.w3.org/2000/svg">
  <defs
     id="defs6" />
  <sodipodi:namedview
     id="namedview4"
     pagecolor="transparent"
     bordercolor="transparent"
     borderopacity="0.25"
     inkscape:showpageshadow="2"
     inkscape:pageopacity="0.0"
     inkscape:pagecheckerboard="0"
     inkscape:deskcolor="#d1d1d1" />
  <g
     id="g8"
     inkscape:groupmode="layer"
     inkscape:label="ink_ext_XXXXXX"
     transform="matrix(1.3333333,0,0,-1.3333333,0,2640)">
    <g
       id="g10"
       transform="scale(0.1)">
      <path
         d="m 2825.04,324.531 c -402.27,402.27 -396.88,611.762 40.23,1570.429 1093.95,2399.22 3615.32,5388.32 5791.92,6866.45 3180.61,2159.89 7718.81,3246.29 10523.71,2519.19 1302.7,-337.6 2240.5,-762.2 3862.2,-1748.37 2036.9,-1238.64 2814.1,-1559.3 3936.7,-1624.3 861.6,-49.88 2293.1,105.35 2813.6,305.08 539.6,207.07 20.2,-469.92 -1535.5,-2001.45 C 24504.7,2516.8 22284.7,1084.34 19279.4,418.32 17740,77.1914 14795.8,209.73 12419.6,727.152 10969.3,1042.97 10193.8,1137.23 8593.4,1192.23 6176.33,1275.35 5415.12,1157.54 4110.9,498.551 L 3141.05,8.51953 Z M 5115.51,2164.06 c 1330.08,664.46 2560.97,866.25 4795.15,786.06 1281.44,-45.98 2263.94,-161.53 3324.44,-390.94 2046.2,-442.7 4004.8,-544.26 5080.8,-263.48 1791.4,467.39 3391.2,1497.31 4651.4,2994.42 410.8,487.97 731.9,926.83 713.6,975.23 -18.3,48.4 -745.9,566.1 -1616.8,1150.43 l -1583.5,1062.42 -58.5,-1207.38 c -89.9,-1854.22 -690.7,-2924.57 -2011,-3582.5 -815.4,-406.33 -1381.1,-406.91 -2193,-2.34 -1084.4,540.35 -1674.4,1569.02 -1687.4,2941.95 -9.8,1051.48 209.5,1762.97 731.8,2373.12 230.4,269.18 418.9,522.78 418.9,563.56 0,150.23 -1138.4,67.38 -2308.4,-167.97 C 12113.7,9143.32 10638.2,8568.52 9431.6,7861.21 8574.02,7358.48 6555.43,5380.55 5228.28,3742.58 4697.19,3087.07 4099.49,2353.2 3900.08,2111.68 3700.66,1870.2 3497.46,1537.97 3448.52,1373.44 l -88.99,-299.22 421.56,316.87 c 231.84,174.3 832.31,522.11 1334.42,772.89 z M 0,1175.04 c 0,36.8 134.73,333.16 299.379,658.63 164.68,325.43 733.901,1636.1 1265.001,2912.58 2421.71,5820.65 4753.71,9465.15 7625.39,11917.45 4194.93,3582.2 9552.63,4136 14065.93,1454 875.2,-520.1 1949.1,-1386.3 1834.6,-1479.7 -34.6,-28.1 -433.4,-205.1 -886.5,-393.2 -453,-188.1 -1638.5,-827.3 -2634.4,-1420.4 -2609,-1553.7 -3350.7,-1865.8 -6056.5,-2549.2 C 10805.9,11086.5 8387.54,9853.98 5445.08,7144.14 4642.81,6405.27 1924.14,3390.47 762.148,1951.13 106.172,1138.52 0,1030.43 0,1175.04 Z"
         style="fill:#ffffff;fill-opacity:1;fill-rule:nonzero;stroke:none"
         id="path12" />
    </g>
  </g>
</svg>
